<?xml version="1.0" standalone="no"?>
<!DOCTYPE svg PUBLIC "-//W3C//DTD SVG 20010904//EN"
 "http://www.w3.org/TR/2001/REC-SVG-20010904/DTD/svg10.dtd">
<svg version="1.0" xmlns="http://www.w3.org/2000/svg"
 width="416.000000pt" height="416.000000pt" viewBox="0 0 416.000000 416.000000"
 preserveAspectRatio="xMidYMid meet">
<metadata>
Created by potrace 1.16, written by Peter Selinger 2001-2019
</metadata>
<g transform="translate(0.000000,416.000000) scale(0.100000,-0.100000)"
fill="#E50B14" stroke="none">
<path d="M1245 2843 c4 -10 87 -227 185 -483 98 -256 229 -599 291 -762 l114
-298 207 0 206 0 -148 448 c-82 246 -198 596 -257 777 l-109 330 -248 3 c-234
2 -248 1 -241 -15z"/>
<path d="M2447 2853 c-3 -5 -72 -214 -155 -465 l-150 -457 95 -292 c59 -178
99 -286 103 -278 4 8 135 343 290 744 155 402 284 736 287 743 4 9 -46 12
-230 12 -130 0 -238 -3 -240 -7z"/>
</g>
</svg>
