<?xml version="1.0" encoding="UTF-8"?>
<!DOCTYPE svg  PUBLIC '-//W3C//DTD SVG 1.1//EN'  'http://www.w3.org/Graphics/SVG/1.1/DTD/svg11.dtd'>
<svg clip-rule="evenodd" fill-rule="evenodd" image-rendering="optimizeQuality" shape-rendering="geometricPrecision" text-rendering="geometricPrecision" version="1.1" viewBox="0 0 300 94" xmlns="http://www.w3.org/2000/svg">
<path d="m-0.5 7.5v-1c5.1186-0.6031 9.7853 0.06356 14 2-4.5704-0.94104-9.237-1.2744-14-1z" fill="#E50914" opacity=".667"/>
<path d="m134.5 6.5v1h-36v11h12v60h3c-1.068 0.9345-2.401 1.2678-4 1v-60h-12v-13h37z" fill="#E50914" opacity=".667"/>
<path d="m271.5 8.5c-4.434-1.2944-8.767-1.2944-13 0-0.543-0.05999-0.876-0.39333-1-1 2.333-0.33333 4.667-0.66667 7-1 2.769 0.02856 5.103 0.69522 7 2z" fill="#E50914" opacity=".667"/>
<path d="m299.5 6.5v3h-1c-1.548-1.2943-3.548-1.9609-6-2-2.421 0.06002-4.754 0.39335-7 1 4.215-1.9364 8.881-2.6031 14-2z" fill="#E50914" opacity=".667"/>
<path d="m-0.5 7.5c4.763-0.27438 9.4296 0.05896 14 1 4.0599 10.512 7.7265 21.179 11 32-0.3799 2.198 0.2868 3.8646 2 5v1c-0.2529 2.3273 0.4137 4.3273 2 6 0.9993-14.985 1.3327-29.985 1-45h11v76c-4.1211 0.6978-8.2877 1.3645-12.5 2-0.5-0.3333-1-0.6667-1.5-1-4.7396-12.553-9.0729-25.219-13-38-0.2086-1.4217-0.7086-2.755-1.5-4-0.4999 14.663-0.6666 29.33-0.5 44-1.9147-0.2845-3.5813 0.0489-5 1-2.217 0.8686-4.5504 1.202-7 1v-81z" fill="#E50914"/>
<path d="m40.5 83.5v-76h-11c0.3327 15.015-7e-4 30.015-1 45-1.5863-1.6727-2.2529-3.6727-2-6 0.7679 0.7625 1.2679 1.7625 1.5 3 0.4999-14.33 0.6666-28.663 0.5-43h13c0.3311 25.839-0.0022 51.505-1 77z" fill="#E50914" opacity=".8"/>
<path d="m85.5 7.5h-30v74h6c-2.1074 0.9682-4.4407 1.3016-7 1v-76c10.514-0.32756 20.847 0.00577 31 1z" fill="#E50914" opacity=".62"/>
<path d="m85.5 7.5v11h-18c-0.324 6.8543 0.0093 13.521 1 20h14v11h-15c-0.3235 6.5221 0.0098 12.855 1 19 5.672-0.2599 11.339-0.5932 17-1v13c-7.9948 0.4355-15.995 0.7688-24 1h-6v-74h30z" fill="#E50914"/>
<path d="m134.5 7.5v11h-12v60h-9-3v-60h-12v-11h36z" fill="#E50914"/>
<path d="m177.5 6.5v1h-30v70h12c-0.327-9.1822 7e-3 -18.182 1-27v28h-14v-72h31z" fill="#E50914" opacity=".388"/>
<path d="m177.5 7.5v11h-18c-0.324 6.8543 9e-3 13.521 1 20h15v12h-15c-0.993 8.8178-1.327 17.818-1 27h-12v-70h30z" fill="#E50914"/>
<path d="m190.5 6.5v1 71c1.599-0.2678 2.932 0.0655 4 1h-5c-0.331-24.506 2e-3 -48.839 1-73z" fill="#E50914" opacity=".259"/>
<path d="m190.5 7.5h12c-0.655 20.361 0.012 40.361 2 60h5c3.462 0.9816 7.129 1.315 11 1v11h-12-14c-1.068-0.9345-2.401-1.2678-4-1v-71z" fill="#E50914"/>
<path d="m190.5 7.5v-1h13c-0.321 20.409 0.012 40.742 1 61-1.988-19.639-2.655-39.639-2-60h-12z" fill="#E50914" opacity=".612"/>
<path d="m238.5 81.5h7v-74h-12v74c-0.998-24.828-1.331-49.828-1-75h14v76c-2.885 0.3064-5.552-0.0269-8-1z" fill="#E50914" opacity=".396"/>
<path d="m238.5 81.5h-5v-74h12v74h-7z" fill="#E50914"/>
<path d="m271.5 8.5c2.629 5.372 4.796 11.039 6.5 17 2.55-5.7566 5.05-11.423 7.5-17 2.246-0.60665 4.579-0.93998 7-1 2.452 0.03907 4.452 0.70574 6 2-4.368 11.933-9.034 23.767-14 35.5 4.964 13.06 9.631 26.227 14 39.5v3h-4c-3.507 0.5065-6.674-0.1602-9.5-2-2.278-6.6651-4.444-13.332-6.5-20-0.532-2.9596-1.199-3.2929-2-1-2.396 6.3491-4.896 12.682-7.5 19-3.466 1.2167-6.966 1.2167-10.5 0-0.418-0.7216-1.084-1.2216-2-1.5 0.88-1.3561 1.214-2.8561 1-4.5 4.229-11.182 8.562-22.349 13-33.5-4.308-11.757-8.308-23.59-12-35.5 4.233-1.2944 8.566-1.2944 13 0z" fill="#E50914"/>
<path d="m177.5 6.5c0.985 4.1344 1.318 8.4677 1 13h-18v19c-0.991-6.479-1.324-13.146-1-20h18v-11-1z" fill="#E50914" opacity=".133"/>
<path d="m85.5 18.5c-5.4753 0.9889-11.142 1.3222-17 1v19c-0.9907-6.479-1.324-13.146-1-20h18z" fill="#E50914" opacity=".247"/>
<path d="m134.5 6.5c0.985 4.1344 1.318 8.4677 1 13h-12c0.33 19.84-3e-3 39.507-1 59v-60h12v-11-1z" fill="#E50914" opacity=".145"/>
<path d="m13.5 46.5c-0.9957 13.49-1.329 27.156-1 41h-6c1.4187-0.9511 3.0853-1.2845 5-1-0.1666-14.67 1e-4 -29.337 0.5-44 0.7914 1.245 1.2914 2.5783 1.5 4z" fill="#E50914" opacity=".298"/>
<path d="m24.5 40.5c1.0375 1.4303 1.7041 3.097 2 5-1.7132-1.1354-2.3799-2.802-2-5z" fill="#E50914" opacity=".91"/>
<path d="m82.5 38.5c0.9834 3.7984 1.3168 7.7984 1 12h-15v18c-0.9902-6.1446-1.3235-12.478-1-19h15v-11z" fill="#E50914" opacity=".8"/>
<path d="m278.5 65.5c-0.667-0.3333-1.333-0.6667-2-1 0.801-2.2929 1.468-1.9596 2 1z" fill="#E50914" opacity=".004"/>
<path d="m209.5 67.5h12v13c-4.532 0.3182-8.866-0.0151-13-1h12v-11c-3.871 0.315-7.538-0.0184-11-1z" fill="#E50914" opacity=".349"/>
<path d="m257.5 77.5c0.214 1.6439-0.12 3.1439-1 4.5 0.916 0.2784 1.582 0.7784 2 1.5h-3c0.095-2.2857 0.762-4.2857 2-6z" fill="#E50914" opacity=".984"/>
<path d="m298.5 84.5h1v4c-1.915 0.2845-3.581-0.0489-5-1h4v-3z" fill="#E50914" opacity=".525"/>
</svg>
